<?xml version="1.0" encoding="UTF-8" standalone="no"?>
<!DOCTYPE svg PUBLIC "-//W3C//DTD SVG 1.1//EN"
 "http://www.w3.org/Graphics/SVG/1.1/DTD/svg11.dtd">
<!-- Generated by graphviz version 2.47.0 (20210316.0004)
 -->
<!-- Title: dbml Pages: 1 -->
<svg width="1713pt" height="848pt"
 viewBox="0.00 0.00 1712.89 848.00" xmlns="http://www.w3.org/2000/svg" xmlns:xlink="http://www.w3.org/1999/xlink">
<g id="graph0" class="graph" transform="scale(1 1) rotate(0) translate(4 844)">
<title>dbml</title>
<g id="clust2" class="cluster">
<title>cluster_teams</title>
<g id="a_clust2"><a xlink:title="teams&#10;The team tables">
<polygon fill="#fcecec" stroke="#fcecec" points="8,-424 8,-832 1088.13,-832 1088.13,-424 8,-424"/>
<text text-anchor="middle" x="548.07" y="-799.2" font-family="Helvetica,sans-Serif" font-size="32.00" fill="#29235c">teams</text>
</a>
</g>
</g>
<g id="clust1" class="cluster">
<title>cluster_users</title>
<g id="a_clust1"><a xlink:title="users&#10;User details">
<polygon fill="#dddddd" stroke="#dddddd" points="578.57,-8 578.57,-416 1696.89,-416 1696.89,-8 578.57,-8"/>
<text text-anchor="middle" x="1137.73" y="-383.2" font-family="Helvetica,sans-Serif" font-size="32.00" fill="#29235c">users</text>
</a>
</g>
</g>
<!-- users.users -->
<g id="users.users" class="node">
<title>users.users</title>
<g id="a_users.users"><a xlink:title="users.users&#10;a test note">
<ellipse fill="none" stroke="black" stroke-width="0" cx="861.64" cy="-189" rx="275.13" ry="172.57"/>
<g id="a_users.users_0"><a xlink:href="https://flexivis.infrastruktur.link/#url=text:inline:users.users+table+link" xlink:title="users.users&#10;a test note">
<polygon fill="#d3d3d3" stroke="transparent" points="669.64,-249 669.64,-309 1054.64,-309 1054.64,-249 669.64,-249"/>
<polygon fill="none" stroke="#29235c" points="669.64,-249 669.64,-309 1054.64,-309 1054.64,-249 669.64,-249"/>
<text text-anchor="start" x="694.98" y="-270.2" font-family="Helvetica,sans-Serif" font-weight="bold" font-size="32.00" fill="#000000"> &#160;&#160;&#160;&#160;&#160;&#160;users.users 🔗 &#160;&#160;&#160;&#160;&#160;&#160;</text>
</a>
</g>
<polygon fill="#e7e2dd" stroke="transparent" points="669.64,-189 669.64,-249 1054.64,-249 1054.64,-189 669.64,-189"/>
<polygon fill="none" stroke="#29235c" points="669.64,-189 669.64,-249 1054.64,-249 1054.64,-189 669.64,-189"/>
<text text-anchor="start" x="680.64" y="-210.2" font-family="Helvetica,sans-Serif" font-weight="bold" font-size="32.00" fill="#29235c">Id</text>
<text text-anchor="start" x="707.32" y="-210.2" font-family="Helvetica,sans-Serif" font-size="32.00" fill="#29235c"> &#160;&#160;&#160;</text>
<text text-anchor="start" x="954.76" y="-210.2" font-family="Helvetica,sans-Serif" font-style="italic" font-size="32.00" fill="#29235c">int</text>
<text text-anchor="start" x="988.54" y="-210.2" font-family="Helvetica,sans-Serif" font-size="32.00" fill="#29235c"> </text>
<text text-anchor="start" x="997.44" y="-210.2" font-family="Helvetica,sans-Serif" font-weight="bold" font-size="32.00" fill="#29235c">NN</text>
<polygon fill="#e7e2dd" stroke="transparent" points="669.64,-129 669.64,-189 1054.64,-189 1054.64,-129 669.64,-129"/>
<polygon fill="none" stroke="#29235c" points="669.64,-129 669.64,-189 1054.64,-189 1054.64,-129 669.64,-129"/>
<text text-anchor="start" x="680.19" y="-149.2" font-family="Helvetica,sans-Serif" font-size="32.00" fill="#29235c">Name &#160;&#160;&#160;</text>
<text text-anchor="start" x="800.38" y="-150.2" font-family="Helvetica,sans-Serif" font-style="italic" font-size="32.00" fill="#29235c">varchar(max)</text>
<text text-anchor="start" x="988.8" y="-150.2" font-family="Helvetica,sans-Serif" font-size="32.00" fill="#29235c"> </text>
<text text-anchor="start" x="997.69" y="-150.2" font-family="Helvetica,sans-Serif" font-weight="bold" font-size="32.00" fill="#29235c">NN</text>
<polygon fill="#e7e2dd" stroke="transparent" points="669.64,-69 669.64,-129 1054.64,-129 1054.64,-69 669.64,-69"/>
<polygon fill="none" stroke="#29235c" points="669.64,-69 669.64,-129 1054.64,-129 1054.64,-69 669.64,-69"/>
<text text-anchor="start" x="680.64" y="-89.2" font-family="Helvetica,sans-Serif" font-size="32.00" fill="#29235c">Sex &#160;&#160;&#160;</text>
<text text-anchor="start" x="1009.85" y="-90.2" font-family="Helvetica,sans-Serif" font-style="italic" font-size="32.00" fill="#29235c">int</text>
<polygon fill="none" stroke="#29235c" stroke-width="2" points="668.14,-68 668.14,-310 1055.14,-310 1055.14,-68 668.14,-68"/>
</a>
</g>
</g>
<!-- users.sexes -->
<g id="users.sexes" class="node">
<title>users.sexes</title>
<g id="a_users.sexes"><a xlink:title="users.sexes&#10;Male or female">
<ellipse fill="none" stroke="black" stroke-width="0" cx="1430.8" cy="-219" rx="258.19" ry="130.22"/>
<g id="a_users.sexes_1"><a xlink:href="https://flexivis.infrastruktur.link/#url=text:inline:users.sexes+table+link" xlink:title="users.sexes&#10;Male or female">
<polygon fill="#200000" stroke="transparent" points="1250.8,-249 1250.8,-309 1611.8,-309 1611.8,-249 1250.8,-249"/>
<polygon fill="none" stroke="#29235c" points="1250.8,-249 1250.8,-309 1611.8,-309 1611.8,-249 1250.8,-249"/>
<text text-anchor="start" x="1261.46" y="-270.2" font-family="Helvetica,sans-Serif" font-weight="bold" font-size="32.00" fill="#ffffff"> &#160;&#160;&#160;&#160;&#160;&#160;users.sexes 🔗 &#160;&#160;&#160;&#160;&#160;&#160;</text>
</a>
</g>
<polygon fill="#e7e2dd" stroke="transparent" points="1250.8,-189 1250.8,-249 1611.8,-249 1611.8,-189 1250.8,-189"/>
<polygon fill="none" stroke="#29235c" points="1250.8,-189 1250.8,-249 1611.8,-249 1611.8,-189 1250.8,-189"/>
<text text-anchor="start" x="1261.8" y="-210.2" font-family="Helvetica,sans-Serif" font-weight="bold" font-size="32.00" fill="#29235c">Id</text>
<text text-anchor="start" x="1288.48" y="-210.2" font-family="Helvetica,sans-Serif" font-size="32.00" fill="#29235c"> &#160;&#160;&#160;</text>
<text text-anchor="start" x="1511.92" y="-210.2" font-family="Helvetica,sans-Serif" font-style="italic" font-size="32.00" fill="#29235c">int</text>
<text text-anchor="start" x="1545.7" y="-210.2" font-family="Helvetica,sans-Serif" font-size="32.00" fill="#29235c"> </text>
<text text-anchor="start" x="1554.59" y="-210.2" font-family="Helvetica,sans-Serif" font-weight="bold" font-size="32.00" fill="#29235c">NN</text>
<polygon fill="#e7e2dd" stroke="transparent" points="1250.8,-129 1250.8,-189 1611.8,-189 1611.8,-129 1250.8,-129"/>
<polygon fill="none" stroke="#29235c" points="1250.8,-129 1250.8,-189 1611.8,-189 1611.8,-129 1250.8,-129"/>
<text text-anchor="start" x="1261.8" y="-149.2" font-family="Helvetica,sans-Serif" font-size="32.00" fill="#29235c">Name &#160;&#160;&#160;</text>
<text text-anchor="start" x="1437.24" y="-150.2" font-family="Helvetica,sans-Serif" font-style="italic" font-size="32.00" fill="#29235c">varchar(10)</text>
<polygon fill="none" stroke="#29235c" stroke-width="2" points="1249.3,-128 1249.3,-310 1612.3,-310 1612.3,-128 1249.3,-128"/>
</a>
</g>
</g>
<!-- users.users&#45;&gt;users.sexes -->
<!-- users.users&#45;&gt;users.sexes -->
<g id="edge2" class="edge">
<title>users.users:e&#45;&gt;users.sexes:w</title>
<path fill="none" stroke="#29235c" stroke-width="3" d="M1055.64,-99C1153.61,-99 1148.82,-210.94 1239.77,-218.59"/>
<polygon fill="#29235c" stroke="#29235c" stroke-width="3" points="1239.66,-222.09 1249.8,-219 1239.95,-215.09 1239.66,-222.09"/>
<text text-anchor="middle" x="1240.9" y="-190.2" font-family="Helvetica,sans-Serif" font-size="32.00" fill="#29235c">1</text>
<text text-anchor="middle" x="1049.41" y="-70.2" font-family="Helvetica,sans-Serif" font-size="32.00" fill="#29235c">*</text>
</g>
<!-- teams -->
<g id="teams" class="node">
<title>teams</title>
<g id="a_teams"><a xlink:title="teams&#10;Another note">
<ellipse fill="none" stroke="black" stroke-width="0" cx="861.64" cy="-635" rx="218.49" ry="130.22"/>
<polygon fill="#1d71b8" stroke="transparent" points="709.64,-665 709.64,-725 1014.64,-725 1014.64,-665 709.64,-665"/>
<polygon fill="none" stroke="#29235c" points="709.64,-665 709.64,-725 1014.64,-725 1014.64,-665 709.64,-665"/>
<text text-anchor="start" x="756.33" y="-686.2" font-family="Helvetica,sans-Serif" font-weight="bold" font-size="32.00" fill="#ffffff"> &#160;&#160;&#160;&#160;&#160;&#160;teams &#160;&#160;&#160;&#160;&#160;&#160;</text>
<polygon fill="#e7e2dd" stroke="transparent" points="709.64,-605 709.64,-665 1014.64,-665 1014.64,-605 709.64,-605"/>
<polygon fill="none" stroke="#29235c" points="709.64,-605 709.64,-665 1014.64,-665 1014.64,-605 709.64,-605"/>
<text text-anchor="start" x="720.64" y="-626.2" font-family="Helvetica,sans-Serif" font-weight="bold" font-size="32.00" fill="#29235c">Id</text>
<text text-anchor="start" x="747.32" y="-626.2" font-family="Helvetica,sans-Serif" font-size="32.00" fill="#29235c"> &#160;&#160;&#160;</text>
<text text-anchor="start" x="969.85" y="-626.2" font-family="Helvetica,sans-Serif" font-style="italic" font-size="32.00" fill="#29235c">int</text>
<polygon fill="#e7e2dd" stroke="transparent" points="709.64,-545 709.64,-605 1014.64,-605 1014.64,-545 709.64,-545"/>
<polygon fill="none" stroke="#29235c" points="709.64,-545 709.64,-605 1014.64,-605 1014.64,-545 709.64,-545"/>
<text text-anchor="start" x="720.19" y="-565.2" font-family="Helvetica,sans-Serif" font-size="32.00" fill="#29235c">Name &#160;&#160;&#160;</text>
<text text-anchor="start" x="840.36" y="-566.2" font-family="Helvetica,sans-Serif" font-style="italic" font-size="32.00" fill="#29235c">varchar(20)</text>
<polygon fill="none" stroke="#29235c" stroke-width="2" points="708.14,-544 708.14,-726 1015.14,-726 1015.14,-544 708.14,-544"/>
</a>
</g>
</g>
<!-- teams_users -->
<g id="teams_users" class="node">
<title>teams_users</title>
<ellipse fill="none" stroke="black" stroke-width="0" cx="283.29" cy="-605" rx="267.07" ry="172.57"/>
<g id="a_teams_users_2"><a xlink:href="https://flexivis.infrastruktur.link/#url=text:inline:teams_users+join+table+link" xlink:title="&lt;TABLE&gt;">
<polygon fill="#1d71b8" stroke="transparent" points="96.29,-665 96.29,-725 470.29,-725 470.29,-665 96.29,-665"/>
<polygon fill="none" stroke="#29235c" points="96.29,-665 96.29,-725 470.29,-725 470.29,-665 96.29,-665"/>
<text text-anchor="start" x="107.23" y="-686.2" font-family="Helvetica,sans-Serif" font-weight="bold" font-size="32.00" fill="#ffffff"> &#160;&#160;&#160;&#160;&#160;&#160;teams_users 🔗 &#160;&#160;&#160;&#160;&#160;&#160;</text>
</a>
</g>
<polygon fill="#e7e2dd" stroke="transparent" points="96.29,-605 96.29,-665 470.29,-665 470.29,-605 96.29,-605"/>
<polygon fill="none" stroke="#29235c" points="96.29,-605 96.29,-665 470.29,-665 470.29,-605 96.29,-605"/>
<text text-anchor="start" x="107.29" y="-626.2" font-family="Helvetica,sans-Serif" font-weight="bold" font-size="32.00" fill="#29235c">Id</text>
<text text-anchor="start" x="133.97" y="-626.2" font-family="Helvetica,sans-Serif" font-size="32.00" fill="#29235c"> &#160;&#160;&#160;</text>
<text text-anchor="start" x="425.5" y="-626.2" font-family="Helvetica,sans-Serif" font-style="italic" font-size="32.00" fill="#29235c">int</text>
<polygon fill="#e7e2dd" stroke="transparent" points="96.29,-545 96.29,-605 470.29,-605 470.29,-545 96.29,-545"/>
<polygon fill="none" stroke="#29235c" points="96.29,-545 96.29,-605 470.29,-605 470.29,-545 96.29,-545"/>
<text text-anchor="start" x="107.29" y="-565.2" font-family="Helvetica,sans-Serif" font-size="32.00" fill="#29235c">TeamId &#160;&#160;&#160;</text>
<text text-anchor="start" x="425.5" y="-566.2" font-family="Helvetica,sans-Serif" font-style="italic" font-size="32.00" fill="#29235c">int</text>
<polygon fill="#e7e2dd" stroke="transparent" points="96.29,-485 96.29,-545 470.29,-545 470.29,-485 96.29,-485"/>
<polygon fill="none" stroke="#29235c" points="96.29,-485 96.29,-545 470.29,-545 470.29,-485 96.29,-485"/>
<text text-anchor="start" x="107.29" y="-505.2" font-family="Helvetica,sans-Serif" font-size="32.00" fill="#29235c">UserId &#160;&#160;&#160;</text>
<text text-anchor="start" x="425.5" y="-506.2" font-family="Helvetica,sans-Serif" font-style="italic" font-size="32.00" fill="#29235c">int</text>
<polygon fill="none" stroke="#29235c" stroke-width="2" points="95.29,-484 95.29,-726 471.29,-726 471.29,-484 95.29,-484"/>
</g>
<!-- teams_users&#45;&gt;users.users -->
<!-- teams_users&#45;&gt;users.users -->
<g id="edge6" class="edge">
<title>teams_users:e&#45;&gt;users.users:w</title>
<path fill="none" stroke="#29235c" stroke-width="3" d="M471.29,-515C625.85,-515 515.72,-232.15 658.4,-219.44"/>
<polygon fill="#29235c" stroke="#29235c" stroke-width="3" points="658.8,-222.93 668.64,-219 658.5,-215.93 658.8,-222.93"/>
<text text-anchor="middle" x="659.74" y="-190.2" font-family="Helvetica,sans-Serif" font-size="32.00" fill="#29235c">1</text>
<text text-anchor="middle" x="477.51" y="-524.6" font-family="Helvetica,sans-Serif" font-size="32.00" fill="#29235c">*</text>
</g>
<!-- teams_users&#45;&gt;teams -->
<!-- teams_users&#45;&gt;teams -->
<g id="edge4" class="edge">
<title>teams_users:e&#45;&gt;teams:w</title>
<path fill="none" stroke="#29235c" stroke-width="3" d="M471.29,-575C576.59,-575 598.47,-631.2 698.39,-634.82"/>
<polygon fill="#29235c" stroke="#29235c" stroke-width="3" points="698.58,-638.32 708.64,-635 698.7,-631.32 698.58,-638.32"/>
<text text-anchor="middle" x="699.74" y="-644.6" font-family="Helvetica,sans-Serif" font-size="32.00" fill="#29235c">1</text>
<text text-anchor="middle" x="477.51" y="-584.6" font-family="Helvetica,sans-Serif" font-size="32.00" fill="#29235c">*</text>
</g>
</g>
</svg>
