<?xml version="1.0" encoding="UTF-8" standalone="no"?>
<!DOCTYPE svg PUBLIC "-//W3C//DTD SVG 1.1//EN"
 "http://www.w3.org/Graphics/SVG/1.1/DTD/svg11.dtd">
<!-- Generated by graphviz version 2.47.0 (20210316.0004)
 -->
<!-- Title: dbml Pages: 1 -->
<svg width="808pt" height="353pt"
 viewBox="0.00 0.00 808.44 353.07" xmlns="http://www.w3.org/2000/svg" xmlns:xlink="http://www.w3.org/1999/xlink">
<g id="graph0" class="graph" transform="scale(1 1) rotate(0) translate(4 349.07)">
<title>dbml</title>
<!-- galleries -->
<g id="galleries" class="node">
<title>galleries</title>
<ellipse fill="none" stroke="black" stroke-width="0" cx="400.22" cy="-172.53" rx="400.45" ry="172.57"/>
<polygon fill="#1d71b8" stroke="transparent" points="119.22,-232.53 119.22,-292.53 681.22,-292.53 681.22,-232.53 119.22,-232.53"/>
<polygon fill="none" stroke="#29235c" points="119.22,-232.53 119.22,-292.53 681.22,-292.53 681.22,-232.53 119.22,-232.53"/>
<text text-anchor="start" x="278.42" y="-253.73" font-family="Helvetica,sans-Serif" font-weight="bold" font-size="32.00" fill="#ffffff"> &#160;&#160;&#160;&#160;&#160;&#160;galleries &#160;&#160;&#160;&#160;&#160;&#160;</text>
<polygon fill="#ffffff" stroke="transparent" points="119.22,-172.53 119.22,-232.53 681.22,-232.53 681.22,-172.53 119.22,-172.53"/>
<polygon fill="none" stroke="#29235c" points="119.22,-172.53 119.22,-232.53 681.22,-232.53 681.22,-172.53 119.22,-172.53"/>
<text text-anchor="start" x="129.99" y="-193.73" font-family="Helvetica,sans-Serif" font-weight="bold" font-size="32.00" fill="#29235c">gallery_id</text>
<text text-anchor="start" x="266.89" y="-193.73" font-family="Helvetica,sans-Serif" font-size="32.00" fill="#29235c"> &#160;&#160;&#160;</text>
<text text-anchor="start" x="302.21" y="-193.73" font-family="Helvetica,sans-Serif" font-style="italic" font-size="32.00" fill="#29235c">int(3) unsigned zerofill</text>
<text text-anchor="start" x="615.14" y="-193.73" font-family="Helvetica,sans-Serif" font-size="32.00" fill="#29235c"> </text>
<text text-anchor="start" x="624.03" y="-193.73" font-family="Helvetica,sans-Serif" font-weight="bold" font-size="32.00" fill="#29235c">NN</text>
<polygon fill="#ffffff" stroke="transparent" points="119.22,-112.53 119.22,-172.53 681.22,-172.53 681.22,-112.53 119.22,-112.53"/>
<polygon fill="none" stroke="#29235c" points="119.22,-112.53 119.22,-172.53 681.22,-172.53 681.22,-112.53 119.22,-112.53"/>
<text text-anchor="start" x="130.22" y="-132.73" font-family="Helvetica,sans-Serif" font-size="32.00" fill="#29235c">title &#160;&#160;&#160;</text>
<text text-anchor="start" x="433.78" y="-133.73" font-family="Helvetica,sans-Serif" font-style="italic" font-size="32.00" fill="#29235c">varchar(255)</text>
<text text-anchor="start" x="615.13" y="-133.73" font-family="Helvetica,sans-Serif" font-size="32.00" fill="#29235c"> </text>
<text text-anchor="start" x="624.02" y="-133.73" font-family="Helvetica,sans-Serif" font-weight="bold" font-size="32.00" fill="#29235c">NN</text>
<polygon fill="#ffffff" stroke="transparent" points="119.22,-52.53 119.22,-112.53 681.22,-112.53 681.22,-52.53 119.22,-52.53"/>
<polygon fill="none" stroke="#29235c" points="119.22,-52.53 119.22,-112.53 681.22,-112.53 681.22,-52.53 119.22,-52.53"/>
<text text-anchor="start" x="130.22" y="-72.73" font-family="Helvetica,sans-Serif" font-size="32.00" fill="#29235c">comment &#160;&#160;&#160;</text>
<text text-anchor="start" x="563.55" y="-73.73" font-family="Helvetica,sans-Serif" font-style="italic" font-size="32.00" fill="#29235c">text</text>
<text text-anchor="start" x="615.13" y="-73.73" font-family="Helvetica,sans-Serif" font-size="32.00" fill="#29235c"> </text>
<text text-anchor="start" x="624.02" y="-73.73" font-family="Helvetica,sans-Serif" font-weight="bold" font-size="32.00" fill="#29235c">NN</text>
<polygon fill="none" stroke="#29235c" stroke-width="2" points="118.22,-51.53 118.22,-293.53 682.22,-293.53 682.22,-51.53 118.22,-51.53"/>
</g>
</g>
</svg>
