<?xml version="1.0" encoding="UTF-8" standalone="no"?>
<!DOCTYPE svg PUBLIC "-//W3C//DTD SVG 1.1//EN"
 "http://www.w3.org/Graphics/SVG/1.1/DTD/svg11.dtd">
<!-- Generated by graphviz version 2.47.0 (20210316.0004)
 -->
<!-- Title: dbml Pages: 1 -->
<svg width="496pt" height="438pt"
 viewBox="0.00 0.00 495.90 437.92" xmlns="http://www.w3.org/2000/svg" xmlns:xlink="http://www.w3.org/1999/xlink">
<g id="graph0" class="graph" transform="scale(1 1) rotate(0) translate(4 433.92)">
<title>dbml</title>
<!-- accounts -->
<g id="accounts" class="node">
<title>accounts</title>
<ellipse fill="none" stroke="black" stroke-width="0" cx="243.95" cy="-214.96" rx="243.9" ry="214.92"/>
<polygon fill="#1d71b8" stroke="transparent" points="73.95,-304.96 73.95,-364.96 414.95,-364.96 414.95,-304.96 73.95,-304.96"/>
<polygon fill="none" stroke="#29235c" points="73.95,-304.96 73.95,-364.96 414.95,-364.96 414.95,-304.96 73.95,-304.96"/>
<text text-anchor="start" x="118.18" y="-326.16" font-family="Helvetica,sans-Serif" font-weight="bold" font-size="32.00" fill="#ffffff"> &#160;&#160;&#160;&#160;&#160;&#160;accounts &#160;&#160;&#160;&#160;&#160;&#160;</text>
<polygon fill="#e7e2dd" stroke="transparent" points="73.95,-244.96 73.95,-304.96 414.95,-304.96 414.95,-244.96 73.95,-244.96"/>
<polygon fill="none" stroke="#29235c" points="73.95,-244.96 73.95,-304.96 414.95,-304.96 414.95,-244.96 73.95,-244.96"/>
<text text-anchor="start" x="84.95" y="-266.16" font-family="Helvetica,sans-Serif" font-weight="bold" font-size="32.00" fill="#29235c">id</text>
<text text-anchor="start" x="109.84" y="-266.16" font-family="Helvetica,sans-Serif" font-size="32.00" fill="#29235c"> &#160;&#160;&#160;</text>
<text text-anchor="start" x="284.84" y="-266.16" font-family="Helvetica,sans-Serif" font-style="italic" font-size="32.00" fill="#29235c">bigserial</text>
<polygon fill="#e7e2dd" stroke="transparent" points="73.95,-184.96 73.95,-244.96 414.95,-244.96 414.95,-184.96 73.95,-184.96"/>
<polygon fill="none" stroke="#29235c" points="73.95,-184.96 73.95,-244.96 414.95,-244.96 414.95,-184.96 73.95,-184.96"/>
<text text-anchor="start" x="84.95" y="-205.16" font-family="Helvetica,sans-Serif" font-size="32.00" fill="#29235c">owner &#160;&#160;&#160;</text>
<text text-anchor="start" x="242.19" y="-206.16" font-family="Helvetica,sans-Serif" font-style="italic" font-size="32.00" fill="#29235c">varchar</text>
<text text-anchor="start" x="348.86" y="-206.16" font-family="Helvetica,sans-Serif" font-size="32.00" fill="#29235c"> </text>
<text text-anchor="start" x="357.75" y="-206.16" font-family="Helvetica,sans-Serif" font-weight="bold" font-size="32.00" fill="#29235c">NN</text>
<polygon fill="#e7e2dd" stroke="transparent" points="73.95,-124.96 73.95,-184.96 414.95,-184.96 414.95,-124.96 73.95,-124.96"/>
<polygon fill="none" stroke="#29235c" points="73.95,-124.96 73.95,-184.96 414.95,-184.96 414.95,-124.96 73.95,-124.96"/>
<text text-anchor="start" x="84.95" y="-145.16" font-family="Helvetica,sans-Serif" font-size="32.00" fill="#29235c">balance &#160;&#160;&#160;</text>
<text text-anchor="start" x="272.4" y="-146.16" font-family="Helvetica,sans-Serif" font-style="italic" font-size="32.00" fill="#29235c">bigint</text>
<text text-anchor="start" x="348.86" y="-146.16" font-family="Helvetica,sans-Serif" font-size="32.00" fill="#29235c"> </text>
<text text-anchor="start" x="357.75" y="-146.16" font-family="Helvetica,sans-Serif" font-weight="bold" font-size="32.00" fill="#29235c">NN</text>
<polygon fill="#e7e2dd" stroke="transparent" points="73.95,-64.96 73.95,-124.96 414.95,-124.96 414.95,-64.96 73.95,-64.96"/>
<polygon fill="none" stroke="#29235c" points="73.95,-64.96 73.95,-124.96 414.95,-124.96 414.95,-64.96 73.95,-64.96"/>
<text text-anchor="start" x="84.83" y="-85.16" font-family="Helvetica,sans-Serif" font-size="32.00" fill="#29235c">currency &#160;&#160;&#160;</text>
<text text-anchor="start" x="242.57" y="-86.16" font-family="Helvetica,sans-Serif" font-style="italic" font-size="32.00" fill="#29235c">varchar</text>
<text text-anchor="start" x="349.24" y="-86.16" font-family="Helvetica,sans-Serif" font-size="32.00" fill="#29235c"> </text>
<text text-anchor="start" x="358.13" y="-86.16" font-family="Helvetica,sans-Serif" font-weight="bold" font-size="32.00" fill="#29235c">NN</text>
<polygon fill="none" stroke="#29235c" stroke-width="2" points="72.45,-63.96 72.45,-365.96 415.45,-365.96 415.45,-63.96 72.45,-63.96"/>
</g>
</g>
</svg>
