<?xml version="1.0" encoding="UTF-8" standalone="no"?>
<!DOCTYPE svg PUBLIC "-//W3C//DTD SVG 1.1//EN"
 "http://www.w3.org/Graphics/SVG/1.1/DTD/svg11.dtd">
<!-- Generated by graphviz version 2.47.0 (20210316.0004)
 -->
<!-- Title: dbml Pages: 1 -->
<svg width="755pt" height="353pt"
 viewBox="0.00 0.00 754.70 353.07" xmlns="http://www.w3.org/2000/svg" xmlns:xlink="http://www.w3.org/1999/xlink">
<g id="graph0" class="graph" transform="scale(1 1) rotate(0) translate(4 349.07)">
<title>dbml</title>
<!-- my_table -->
<g id="my_table" class="node">
<title>my_table</title>
<ellipse fill="none" stroke="black" stroke-width="0" cx="373.35" cy="-172.53" rx="373.2" ry="172.57"/>
<polygon fill="#1d71b8" stroke="transparent" points="111.35,-232.53 111.35,-292.53 635.35,-292.53 635.35,-232.53 111.35,-232.53"/>
<polygon fill="none" stroke="#29235c" points="111.35,-232.53 111.35,-292.53 635.35,-292.53 635.35,-232.53 111.35,-232.53"/>
<text text-anchor="start" x="246.2" y="-253.73" font-family="Helvetica,sans-Serif" font-weight="bold" font-size="32.00" fill="#ffffff"> &#160;&#160;&#160;&#160;&#160;&#160;my_table &#160;&#160;&#160;&#160;&#160;&#160;</text>
<polygon fill="#e7e2dd" stroke="transparent" points="111.35,-172.53 111.35,-232.53 635.35,-232.53 635.35,-172.53 111.35,-172.53"/>
<polygon fill="none" stroke="#29235c" points="111.35,-172.53 111.35,-232.53 635.35,-232.53 635.35,-172.53 111.35,-172.53"/>
<text text-anchor="start" x="122.35" y="-192.73" font-family="Helvetica,sans-Serif" font-size="32.00" fill="#29235c">delete_timestamp &#160;&#160;&#160;</text>
<text text-anchor="start" x="476.79" y="-193.73" font-family="Helvetica,sans-Serif" font-style="italic" font-size="32.00" fill="#29235c">timestamp</text>
<polygon fill="#e7e2dd" stroke="transparent" points="111.35,-112.53 111.35,-172.53 635.35,-172.53 635.35,-112.53 111.35,-112.53"/>
<polygon fill="none" stroke="#29235c" points="111.35,-112.53 111.35,-172.53 635.35,-172.53 635.35,-112.53 111.35,-112.53"/>
<text text-anchor="start" x="122.35" y="-132.73" font-family="Helvetica,sans-Serif" font-size="32.00" fill="#29235c">buyer_code_id &#160;&#160;&#160;</text>
<text text-anchor="start" x="492.8" y="-133.73" font-family="Helvetica,sans-Serif" font-style="italic" font-size="32.00" fill="#29235c">bigint</text>
<text text-anchor="start" x="569.26" y="-133.73" font-family="Helvetica,sans-Serif" font-size="32.00" fill="#29235c"> </text>
<text text-anchor="start" x="578.15" y="-133.73" font-family="Helvetica,sans-Serif" font-weight="bold" font-size="32.00" fill="#29235c">NN</text>
<polygon fill="#e7e2dd" stroke="transparent" points="111.35,-52.53 111.35,-112.53 635.35,-112.53 635.35,-52.53 111.35,-52.53"/>
<polygon fill="none" stroke="#29235c" points="111.35,-52.53 111.35,-112.53 635.35,-112.53 635.35,-52.53 111.35,-52.53"/>
<text text-anchor="start" x="121.98" y="-72.73" font-family="Helvetica,sans-Serif" font-size="32.00" fill="#29235c">buyer_code &#160;&#160;&#160;</text>
<text text-anchor="start" x="324.12" y="-73.73" font-family="Helvetica,sans-Serif" font-style="italic" font-size="32.00" fill="#29235c">character varying</text>
<text text-anchor="start" x="569.49" y="-73.73" font-family="Helvetica,sans-Serif" font-size="32.00" fill="#29235c"> </text>
<text text-anchor="start" x="578.38" y="-73.73" font-family="Helvetica,sans-Serif" font-weight="bold" font-size="32.00" fill="#29235c">NN</text>
<polygon fill="none" stroke="#29235c" stroke-width="2" points="110.35,-51.53 110.35,-293.53 636.35,-293.53 636.35,-51.53 110.35,-51.53"/>
</g>
</g>
</svg>
