<?xml version="1.0" encoding="UTF-8" standalone="no"?>
<!DOCTYPE svg PUBLIC "-//W3C//DTD SVG 1.1//EN"
 "http://www.w3.org/Graphics/SVG/1.1/DTD/svg11.dtd">
<!-- Generated by graphviz version 2.47.0 (20210316.0004)
 -->
<!-- Title: dbml Pages: 1 -->
<svg width="1345pt" height="268pt"
 viewBox="0.00 0.00 1345.08 268.22" xmlns="http://www.w3.org/2000/svg" xmlns:xlink="http://www.w3.org/1999/xlink">
<g id="graph0" class="graph" transform="scale(1 1) rotate(0) translate(4 264.22)">
<title>dbml</title>
<!-- [dbo].[Order] -->
<g id="[dbo].[Order]" class="node">
<title>[dbo].[Order]</title>
<ellipse fill="none" stroke="black" stroke-width="0" cx="963.72" cy="-130.11" rx="373.2" ry="130.22"/>
<polygon fill="#1d71b8" stroke="transparent" points="701.72,-160.11 701.72,-220.11 1225.72,-220.11 1225.72,-160.11 701.72,-160.11"/>
<polygon fill="none" stroke="#29235c" points="701.72,-160.11 701.72,-220.11 1225.72,-220.11 1225.72,-160.11 701.72,-160.11"/>
<text text-anchor="start" x="811.67" y="-181.31" font-family="Helvetica,sans-Serif" font-weight="bold" font-size="32.00" fill="#ffffff"> &#160;&#160;&#160;&#160;&#160;&#160;[dbo].[Order] &#160;&#160;&#160;&#160;&#160;&#160;</text>
<polygon fill="#e7e2dd" stroke="transparent" points="701.72,-100.11 701.72,-160.11 1225.72,-160.11 1225.72,-100.11 701.72,-100.11"/>
<polygon fill="none" stroke="#29235c" points="701.72,-100.11 701.72,-160.11 1225.72,-160.11 1225.72,-100.11 701.72,-100.11"/>
<text text-anchor="start" x="712.72" y="-121.31" font-family="Helvetica,sans-Serif" font-weight="bold" font-size="32.00" fill="#29235c">id</text>
<text text-anchor="start" x="737.61" y="-121.31" font-family="Helvetica,sans-Serif" font-size="32.00" fill="#29235c"> &#160;&#160;&#160;</text>
<text text-anchor="start" x="942.69" y="-121.31" font-family="Helvetica,sans-Serif" font-style="italic" font-size="32.00" fill="#29235c">uniqueidentifier</text>
<text text-anchor="start" x="1159.63" y="-121.31" font-family="Helvetica,sans-Serif" font-size="32.00" fill="#29235c"> </text>
<text text-anchor="start" x="1168.52" y="-121.31" font-family="Helvetica,sans-Serif" font-weight="bold" font-size="32.00" fill="#29235c">NN</text>
<polygon fill="#e7e2dd" stroke="transparent" points="701.72,-40.11 701.72,-100.11 1225.72,-100.11 1225.72,-40.11 701.72,-40.11"/>
<polygon fill="none" stroke="#29235c" points="701.72,-40.11 701.72,-100.11 1225.72,-100.11 1225.72,-40.11 701.72,-40.11"/>
<text text-anchor="start" x="712.26" y="-60.31" font-family="Helvetica,sans-Serif" font-size="32.00" fill="#29235c">client_fullname &#160;&#160;&#160;</text>
<text text-anchor="start" x="960.61" y="-61.31" font-family="Helvetica,sans-Serif" font-style="italic" font-size="32.00" fill="#29235c">nvarchar(261)</text>
<text text-anchor="start" x="1159.74" y="-61.31" font-family="Helvetica,sans-Serif" font-size="32.00" fill="#29235c"> </text>
<text text-anchor="start" x="1168.64" y="-61.31" font-family="Helvetica,sans-Serif" font-weight="bold" font-size="32.00" fill="#29235c">NN</text>
<polygon fill="none" stroke="#29235c" stroke-width="2" points="700.72,-39.11 700.72,-221.11 1226.72,-221.11 1226.72,-39.11 700.72,-39.11"/>
</g>
<!-- [dbo].[OrderItem] -->
<g id="[dbo].[OrderItem]" class="node">
<title>[dbo].[OrderItem]</title>
<ellipse fill="none" stroke="black" stroke-width="0" cx="277.19" cy="-130.11" rx="277.37" ry="130.22"/>
<polygon fill="#1d71b8" stroke="transparent" points="83.19,-160.11 83.19,-220.11 471.19,-220.11 471.19,-160.11 83.19,-160.11"/>
<polygon fill="none" stroke="#29235c" points="83.19,-160.11 83.19,-220.11 471.19,-220.11 471.19,-160.11 83.19,-160.11"/>
<text text-anchor="start" x="94.02" y="-181.31" font-family="Helvetica,sans-Serif" font-weight="bold" font-size="32.00" fill="#ffffff"> &#160;&#160;&#160;&#160;&#160;&#160;[dbo].[OrderItem] &#160;&#160;&#160;&#160;&#160;&#160;</text>
<polygon fill="#e7e2dd" stroke="transparent" points="83.19,-100.11 83.19,-160.11 471.19,-160.11 471.19,-100.11 83.19,-100.11"/>
<polygon fill="none" stroke="#29235c" points="83.19,-100.11 83.19,-160.11 471.19,-160.11 471.19,-100.11 83.19,-100.11"/>
<text text-anchor="start" x="94.19" y="-121.31" font-family="Helvetica,sans-Serif" font-weight="bold" font-size="32.00" fill="#29235c">id</text>
<text text-anchor="start" x="119.08" y="-121.31" font-family="Helvetica,sans-Serif" font-size="32.00" fill="#29235c"> &#160;&#160;&#160;</text>
<text text-anchor="start" x="188.15" y="-121.31" font-family="Helvetica,sans-Serif" font-style="italic" font-size="32.00" fill="#29235c">uniqueidentifier</text>
<text text-anchor="start" x="405.09" y="-121.31" font-family="Helvetica,sans-Serif" font-size="32.00" fill="#29235c"> </text>
<text text-anchor="start" x="413.98" y="-121.31" font-family="Helvetica,sans-Serif" font-weight="bold" font-size="32.00" fill="#29235c">NN</text>
<polygon fill="#e7e2dd" stroke="transparent" points="83.19,-40.11 83.19,-100.11 471.19,-100.11 471.19,-40.11 83.19,-40.11"/>
<polygon fill="none" stroke="#29235c" points="83.19,-40.11 83.19,-100.11 471.19,-100.11 471.19,-40.11 83.19,-40.11"/>
<text text-anchor="start" x="94.19" y="-61.31" font-family="Helvetica,sans-Serif" font-weight="bold" font-size="32.00" fill="#29235c">order_id</text>
<text text-anchor="start" x="211.54" y="-61.31" font-family="Helvetica,sans-Serif" font-size="32.00" fill="#29235c"> &#160;&#160;&#160;</text>
<text text-anchor="start" x="371.31" y="-61.31" font-family="Helvetica,sans-Serif" font-style="italic" font-size="32.00" fill="#29235c">int</text>
<text text-anchor="start" x="405.09" y="-61.31" font-family="Helvetica,sans-Serif" font-size="32.00" fill="#29235c"> </text>
<text text-anchor="start" x="413.98" y="-61.31" font-family="Helvetica,sans-Serif" font-weight="bold" font-size="32.00" fill="#29235c">NN</text>
<polygon fill="none" stroke="#29235c" stroke-width="2" points="82.19,-39.11 82.19,-221.11 472.19,-221.11 472.19,-39.11 82.19,-39.11"/>
</g>
<!-- [dbo].[OrderItem]&#45;&gt;[dbo].[Order] -->
<!-- [dbo].[OrderItem]&#45;&gt;[dbo].[Order] -->
<g id="edge2" class="edge">
<title>[dbo].[OrderItem]:e&#45;&gt;[dbo].[Order]:w</title>
<path fill="none" stroke="#29235c" stroke-width="3" d="M472.19,-70.11C573.71,-70.11 594.38,-126.19 690.54,-129.91"/>
<polygon fill="#29235c" stroke="#29235c" stroke-width="3" points="690.66,-133.42 700.72,-130.11 690.79,-126.42 690.66,-133.42"/>
<text text-anchor="middle" x="709.62" y="-130.11" font-family="Helvetica,sans-Serif" font-size="32.00" fill="#29235c">1</text>
<text text-anchor="middle" x="478.41" y="-41.31" font-family="Helvetica,sans-Serif" font-size="32.00" fill="#29235c">*</text>
</g>
</g>
</svg>
